<svg id="Capa_1" data-name="Capa 1" xmlns="http://www.w3.org/2000/svg" viewBox="0 0 480 400.03"><defs><style>.cls-1{fill:#00353b;}</style></defs><path class="cls-1" d="M472,88H440V48a8,8,0,0,0-8-8c-.24,0-.47,0-.7,0l-20.87,1.76A485.16,485.16,0,0,0,263.34,77.65L240,87.35l-23.31-9.67A485.36,485.36,0,0,0,69.55,41.8L48.67,40A8,8,0,0,0,40,47.31c0,.24,0,.47,0,.7V88H8a8,8,0,0,0-8,8V432a8,8,0,0,0,8,8H472a8,8,0,0,0,8-8V96A8,8,0,0,0,472,88ZM16,424V104H40V384a8,8,0,0,0,7.32,8l21.53,1.84q8.79.75,17.6,1.82c2,.23,3.9.54,5.86.8,3.88.52,7.76,1,11.63,1.66,2.3.36,4.6.8,6.89,1.2,3.51.62,7,1.24,10.5,1.92,2.4.48,4.8,1,7.2,1.53,3.37.72,6.73,1.46,10.09,2.26,2.4.57,4.84,1.19,7.25,1.81q5,1.26,9.89,2.62c2.4.67,4.8,1.38,7.2,2.08q4.89,1.45,9.77,3c2.38.76,4.75,1.53,7.12,2.33q4.91,1.65,9.77,3.43c2.3.8,4.61,1.67,6.9,2.54,1,.38,2,.8,3,1.17Zm216-4-14.75-6.16a485.43,485.43,0,0,0-147-36L56,376.67v-320l12.21,1a469.73,469.73,0,0,1,142.33,34.7L232,101.35Zm16,0V101.35l21.49-8.92a469.46,469.46,0,0,1,142.3-34.69l12.21-1V376.65l-13.14,1.07a488.4,488.4,0,0,0-147.2,35.79Zm216,4H280.64c1.1-.42,2.18-.87,3.28-1.28,2.4-.92,4.8-1.8,7.26-2.67q4.69-1.69,9.44-3.3l7.42-2.4c3.16-1,6.34-2,9.51-2.91,2.5-.74,5-1.47,7.51-2.16,3.2-.89,6.4-1.73,9.68-2.56,2.48-.63,5-1.26,7.46-1.85,3.33-.8,6.68-1.52,10-2.23,2.4-.52,4.8-1.06,7.25-1.54,3.52-.7,7.06-1.31,10.58-1.93l6.87-1.2c3.94-.62,7.89-1.16,11.85-1.69,1.9-.24,3.8-.55,5.7-.8q8.81-1,17.69-1.81L432.66,392a8,8,0,0,0,7.34-8V104h24V424Z" transform="translate(0 -39.99)"/></svg>