<svg id="Capa_1" data-name="Capa 1" xmlns="http://www.w3.org/2000/svg" viewBox="0 0 512 511.98"><defs><style>.cls-1{fill:#00353b;}</style></defs><path class="cls-1" d="M442.2,137l5.53-27.8L388.37,97.42,256,0,180,56l-66.82-13.3L98.59,115.85,0,188.4V512H512V188.4Zm26.2,56.54-41.6,20.88,8.93-44.92ZM256,37.26l63,46.36L219.81,63.89ZM412.45,132.8l-19.64,98.71L256,300.2,107.35,225.57,136.71,78ZM79.54,211.61l-35.94-18,46.31-34.08ZM30,482V220.31L256,333.77,482,220.31V482Z" transform="translate(0 -0.01)"/><path class="cls-1" d="M321.72,175.84l5.85-29.43,49.61,9.86-5.85,29.43Z" transform="translate(0 -0.01)"/><path class="cls-1" d="M154.43,142.6l5.85-29.43,137.9,27.41L292.33,170Z" transform="translate(0 -0.01)"/><path class="cls-1" d="M142.73,201.44,148.58,172l167.33,33.26-5.85,29.43Z" transform="translate(0 -0.01)"/></svg>