<svg id="Layer_1" data-name="Layer 1" xmlns="http://www.w3.org/2000/svg" viewBox="0 0 512 297.05"><defs><style>.cls-1{fill:#00353b;}</style></defs><path class="cls-1" d="M487.77,301.77V197a15.24,15.24,0,0,0-10.57-14.51L248.56,108.73a15.24,15.24,0,0,0-9.35,0L10.56,182.44a15.24,15.24,0,0,0,0,29L125,248.35v57.17c0,.25,0,.5,0,.74.45,14.83,14.47,28.88,39.57,39.64,22.93,9.83,51.09,15.25,79.27,15.25s56.33-5.42,79.26-15.25c25.53-10.94,39.58-25.28,39.58-40.38V248.35l94.56-30.48v83.9a39.55,39.55,0,0,0-24.24,36.41v51.63a15.24,15.24,0,0,0,15.24,15.24h48.47A15.24,15.24,0,0,0,512,389.81V338.18A39.54,39.54,0,0,0,487.77,301.77ZM306.38,319.82c-18.39,7-40.58,10.85-62.49,10.85s-44.11-3.85-62.49-10.85c-16.11-6.14-24.05-12.77-25.89-15.56V258.17l83.7,27a15.14,15.14,0,0,0,9.35,0l83.7-27v46.1C330.4,307.06,322.47,313.69,306.38,319.82Zm-62.5-65.18L64.9,197l179-57.7,179,57.7ZM481.52,374.57h-18V338.18a9,9,0,0,1,18,0Z" transform="translate(0 -108)"/></svg>