<svg id="Layer_1" data-name="Layer 1" xmlns="http://www.w3.org/2000/svg" viewBox="0 0 512 512"><defs><style>.cls-1{fill:#00353b;}</style></defs><path class="cls-1" d="M61,361H91v30H61Z"/><path class="cls-1" d="M61,421H91v30H61Z"/><path class="cls-1" d="M421,361h30v30H421Z"/><path class="cls-1" d="M421,421h30v30H421Z"/><path class="cls-1" d="M0,512H512V271H391V216.42l18.6,15.94,19.52-22.79L289.51,90h122.7l-45-45,45-45H241V74.15L82.88,209.57l19.52,22.78L121,216.42V271H0ZM301,391v91H271V391Zm-89.26-30c6-43,43.42-57.54,44.26-58.23,1.24,1,38.1,14.41,44.26,58.23ZM211,391h30v91H211Zm271-90V482H391V301ZM271,30h68.79l-15,15,15,15H271Zm-15,70.8,105,89.93V482H331V371.62a105,105,0,0,0-58-93.91l-17-8.48-17,8.48a105,105,0,0,0-58,93.91V482H151V190.73ZM30,301h91V482H30Z"/><path class="cls-1" d="M256,241a45,45,0,1,0-45-45A45.05,45.05,0,0,0,256,241Zm0-60a15,15,0,1,1-15,15A15,15,0,0,1,256,181Z"/></svg>