<svg id="Layer_1" data-name="Layer 1" xmlns="http://www.w3.org/2000/svg" viewBox="0 0 510.34 453.06"><defs><style>.cls-1{fill:#f26a4b;}.cls-2{fill:#feb82f;}.cls-3{fill:none;stroke:#000;stroke-width:0.22px;}</style></defs><path class="cls-1" d="M41.92,453.56A41.28,41.28,0,0,1,.74,412.3a40.53,40.53,0,0,1,5.54-20.59l214-370.58c15.91-27.51,55.44-27.51,71.35,0l214,370.58A41.31,41.31,0,0,1,470,453.56Z" transform="translate(-0.74 -0.5)"/><polygon class="cls-2" points="52.2 405.47 458.14 405.47 255.17 53.89 52.2 405.47"/><path d="M420.14,378.9V385H91.39l.72-2.88q1.62-6.27,3.67-12.1a43.91,43.91,0,0,1,4.32-9.36c1.22-2,2.37-3.81,3.53-5.69a2.48,2.48,0,0,1,.79-.64l.72-1.23,2.66-5.83a26.9,26.9,0,0,1,2.38-4.25c.86-1.22,1.73-2.37,2.66-3.45a57,57,0,0,0,4.9-6.84,34.22,34.22,0,0,1,5.18-6.84,11.55,11.55,0,0,1,2.74-2.24,8.12,8.12,0,0,0,2.81-3,39,39,0,0,1,5.4-7.85,11.27,11.27,0,0,1,11.37-3.53,35.2,35.2,0,0,1,6.19,2.31,44.22,44.22,0,0,1,9.87,6.69l2-1a248,248,0,0,0,25.78-14.48l3.67,1.44,4.47-3.74,2.44-2.66,4.68-3.39a100.45,100.45,0,0,1,18.22-10.58l3.74-3.31,5.91-5.55a5,5,0,0,0,1.29-2.23,29.57,29.57,0,0,0,1.3-7c.22-3.39.36-6.48.5-9.65.08-2.45.29-4.9.58-7.35a71.47,71.47,0,0,0,.58-9.57v-2c0-.5-.08-1.58-.08-2.73-.07-1.95-.28-2.74-.72-3.39l-4-8.49-5.4-9.22a15.39,15.39,0,0,1-2-6.69,25.68,25.68,0,0,1,.57-7.06,16.56,16.56,0,0,1,.87-2.66,2.37,2.37,0,0,0,.21-1,2.64,2.64,0,0,0-.5-1.44,1.55,1.55,0,0,0-1.3-.65,1,1,0,0,0-.43.07,5,5,0,0,1-4.46-1.08,17.78,17.78,0,0,1-5.69-9.07c-.36-1.3-.79-2.66-1.22-4a4.86,4.86,0,0,0-1.66-2.45,9.92,9.92,0,0,1-3.1-4.9,13.25,13.25,0,0,1,0-6.26,11.57,11.57,0,0,1,3.68-6,19.82,19.82,0,0,1,6.33-3.6,47.9,47.9,0,0,1,7.71-1.8,6.55,6.55,0,0,1,4,.65,23.57,23.57,0,0,1,4.39,2.95,9.07,9.07,0,0,1,3,4.32,42.27,42.27,0,0,1,1.44,5,25.26,25.26,0,0,1,.65,3.1,20.49,20.49,0,0,0,2.52,6.69c.94,1.73,1.73,3,2.59,4.32-.14-.21,1,.65,2.38,1.08a8.44,8.44,0,0,0,2.37.36,7.4,7.4,0,0,0,1.8-.21,57.15,57.15,0,0,1,7.06-1,25.56,25.56,0,0,0,5.69-1.08c3.67-1.23,7.27-2.23,10.94-3.31a15.27,15.27,0,0,1,6.55-.36,91.65,91.65,0,0,1,32.4,11.52c1,.57,2,1.15,3,1.8a8.34,8.34,0,0,1,3.24,3.81,19.27,19.27,0,0,1,1.44,5.55c.5,5.4,1.08,10.22,1.8,15A17,17,0,0,0,327,224a9.57,9.57,0,0,0,2.31,1.87,12.46,12.46,0,0,1,4.24,4.18,4.18,4.18,0,0,1,.72,2.44,4.6,4.6,0,0,1-1.65,3.6,30.86,30.86,0,0,1-3.17,2.24,6.6,6.6,0,0,1-2.81,1,1.08,1.08,0,0,0-.93.94l.93,20.81.15,17.13-.29,8.21.14,7.13-.43,6.48-.79,7.78A59.84,59.84,0,0,0,325,315a74.09,74.09,0,0,0,.79,10.65,45,45,0,0,1,.57,7c0,.72-.07,1.36-.07,2l.15,9.36-.22,10.73-.29,9.94.15,4.75a3.24,3.24,0,0,0,3.24,3.09l.72-.07,4.24-3.45a2.67,2.67,0,0,0,1-2.09,1.65,1.65,0,0,0-.07-.58,18.06,18.06,0,0,1-.29-2.81,3.05,3.05,0,0,1,.79-2.3,7.32,7.32,0,0,1,1.59-1.22l2.66-1.16,2.88-1.58a39.66,39.66,0,0,0,7.06-4.82,19.51,19.51,0,0,1,1.58-1.3,4.54,4.54,0,0,1,3.39-1.15,8.73,8.73,0,0,1,4.75,1.44,7.54,7.54,0,0,1,2.66,3.17,58.56,58.56,0,0,0,16.63,22,10.64,10.64,0,0,0,4.68,2.09l36.53.09Z" transform="translate(-0.74 -0.5)"/><path class="cls-2" d="M248,265.14c.07.07.14.07.28.07a.93.93,0,0,0,.8-.36c1.44-1.65,2.73-3.24,4-4.89.93-1.16,1.72-2.38,2.59-3.6.65-1,1.29-2.09,2-3.1a29.64,29.64,0,0,0,1.95-3.17c.93-1.73,1.8-3.31,2.66-5a13.71,13.71,0,0,0,1.3-4.1c.21-.79.36-1.66.57-2.52a3.75,3.75,0,0,0,.22-1.37,3.09,3.09,0,0,0-.79-2l-1.8-2-2.16-1.66a2.07,2.07,0,0,0-1.51-.64,2.12,2.12,0,0,0-1.8,1.08l-1.44,2.37a7.72,7.72,0,0,0-.58,2.23,19.79,19.79,0,0,1-.43,4.11c-.15.65-.58,2.52-.94,4.39a111,111,0,0,1-3.24,12.1l-.86,2.44-1,3a4.18,4.18,0,0,0-.36,1.65.91.91,0,0,0,.07.43.55.55,0,0,0,.5.6Z" transform="translate(-0.74 -0.5)"/><line class="cls-3" x1="246.74" y1="263.99" x2="247.18" y2="264.64"/><path class="cls-2" d="M292.7,200.34l3.52.07,3.1.36,4.82.94a.79.79,0,0,1,.58.5L306,205l.93,2.09.65,1.8,1,2.37,1.65,3.32,1,1.8,1.15,2.8,1.08,3.24.58,2.45.22.94a1.24,1.24,0,0,1,.07.5,1.91,1.91,0,0,1-1.87,1.87h-.08a2.34,2.34,0,0,1-1.15-.36l-2.3-2.3L306.52,223l-1.44-1.59-1.15-1.72-.87-1.66c-.64-1.37-1.29-2.74-1.8-4.18L298,210.13l-4-4.46-3.24-3.17a.38.38,0,0,1,.07-.65l.94-1.15a1.13,1.13,0,0,1,.89-.37Z" transform="translate(-0.74 -0.5)"/><path class="cls-2" d="M255,372l8.85-6.05.43-.29,1.66-.5,3.31-.79,6.41-3.82-.36-1.29a17.12,17.12,0,0,0-2.95-6.27,35.17,35.17,0,0,1-3.1-5.25,10.77,10.77,0,0,1-1.15-4.47,74.91,74.91,0,0,0-2.45-14.83c-1.51-5.33-3.31-10.8-5.25-16.27a28.07,28.07,0,0,1-1.73-7.63,6.71,6.71,0,0,1-.07-1.73,1.7,1.7,0,0,1,.36-1l1.94-1.8,2.3-1.8,2.16-1.94,2.67-2.38,1.65-1.73,7.28-7.92.93-1.22.43-.65c.44-.65.94-1.3,1.44-1.94a3.37,3.37,0,0,1,.94-.8l2.95-1.8,2.16-.79a2.12,2.12,0,0,1,2.16.29,5.49,5.49,0,0,1,1.87,3l.36,3.89.44,3.82,1.08,7.63a48.91,48.91,0,0,1,.36,5.47,39.59,39.59,0,0,1-.36,5,15.9,15.9,0,0,0-.08,1.95,15.58,15.58,0,0,0,.94,5.47,28.12,28.12,0,0,0,1.73,3.67,43.31,43.31,0,0,1,3.74,9.72,34.32,34.32,0,0,1,1,7.2A65.49,65.49,0,0,0,300.61,346c.51,2.3.87,4.17,1.3,6.19a1.45,1.45,0,0,0,1.44,1,.93.93,0,0,0,.43-.07l1.73.07a.84.84,0,0,1,.79.65A18.45,18.45,0,0,1,307,359a18.78,18.78,0,0,1-.65,4.9,4.56,4.56,0,0,1-3,3.31,19.31,19.31,0,0,1-4,.93,3.1,3.1,0,0,0-2.6,2.38,6.61,6.61,0,0,0-.21,1.58v.08a2.47,2.47,0,0,1-1.87,2.44,13.46,13.46,0,0,1-3.32.65c-1.65.15-3.31.36-5,.65l-5.25.14-6.12-.28L270,375l-3.09-.72-4.76-.93-3.24-.65L255,372Z" transform="translate(-0.74 -0.5)"/><path class="cls-2" d="M164,321.87l1.87-.36,5-1.08a51.59,51.59,0,0,0,9.79-3.1c2.73-1.15,4.82-2,6.91-2.88a23.65,23.65,0,0,0,7.27-4.75l3.53-2.95,3-3,2-1.66,2.23-1.66,2.09-1.51,2.59-1.58,1.87-1,2-1,2.09-1,2.23-1.15,1.65-.86,1.52-.94,1.44-.79,3.09-1.3L232.21,306l.15.65.14.64,2.38,7.92,2,8.14,1.51,5.18,1,3.89,2.16,9.79.58,3.1a9.07,9.07,0,0,0,2.23,4.25,4.9,4.9,0,0,0,1.44,1,8.24,8.24,0,0,0,3.89.93,2.55,2.55,0,0,0,.72-.07,2.87,2.87,0,0,1,2.45,1,10.37,10.37,0,0,1,2.37,5.25v.29a2.37,2.37,0,0,1-.21,1l-2.67,4.25-.5.79-6,3.38a1.4,1.4,0,0,0-.72,1.23v.21l.51,1.95-2-.43a32.88,32.88,0,0,0-8.06-.94,35.58,35.58,0,0,0-4.83.29,95.69,95.69,0,0,0-9.5,1.8A47.9,47.9,0,0,1,211,372.77a22.37,22.37,0,0,1-7-.86c-.94-.22-2-.5-3-.72a9.29,9.29,0,0,1-5.33-2.88c-1-1-2.23-2.38-3.53-3.6l-3.24-4.61-1.8-2.88-1.94-2.81-1.73-2.52-2.75-4.19-1.3-2.08-1.87-3.82-1.37-3-.93-1.88-.8-1.51A53.82,53.82,0,0,0,164,321.86h0Z" transform="translate(-0.74 -0.5)"/></svg>