<svg data-name="Capa 1" xmlns="http://www.w3.org/2000/svg" viewBox="0 0 480 400.03"><path d="M472 48.01h-32v-40a8 8 0 00-8-8h-.7l-20.87 1.76a485.16 485.16 0 00-147.09 35.89L240 47.36l-23.31-9.67A485.36 485.36 0 0069.55 1.81L48.67.01A8 8 0 0040 7.32v40.69H8a8 8 0 00-8 8v336a8 8 0 008 8h464a8 8 0 008-8v-336a8 8 0 00-8-8zm-456 336v-320h24v280a8 8 0 007.32 8l21.53 1.84q8.79.75 17.6 1.82c2 .23 3.9.54 5.86.8 3.88.52 7.76 1 11.63 1.66 2.3.36 4.6.8 6.89 1.2 3.51.62 7 1.24 10.5 1.92 2.4.48 4.8 1 7.2 1.53 3.37.72 6.73 1.46 10.09 2.26 2.4.57 4.84 1.19 7.25 1.81q5 1.26 9.89 2.62c2.4.67 4.8 1.38 7.2 2.08q4.89 1.45 9.77 3c2.38.76 4.75 1.53 7.12 2.33q4.91 1.65 9.77 3.43c2.3.8 4.61 1.67 6.9 2.54 1 .38 2 .8 3 1.17zm216-4l-14.75-6.16a485.43 485.43 0 00-147-36L56 336.68v-320l12.21 1a469.73 469.73 0 01142.33 34.7L232 61.36zm16 0V61.36l21.49-8.92a469.46 469.46 0 01142.3-34.69l12.21-1v319.91l-13.14 1.07a488.4 488.4 0 00-147.2 35.79zm216 4H280.64c1.1-.42 2.18-.87 3.28-1.28 2.4-.92 4.8-1.8 7.26-2.67q4.69-1.69 9.44-3.3l7.42-2.4c3.16-1 6.34-2 9.51-2.91 2.5-.74 5-1.47 7.51-2.16 3.2-.89 6.4-1.73 9.68-2.56 2.48-.63 5-1.26 7.46-1.85 3.33-.8 6.68-1.52 10-2.23 2.4-.52 4.8-1.06 7.25-1.54 3.52-.7 7.06-1.31 10.58-1.93l6.87-1.2c3.94-.62 7.89-1.16 11.85-1.69 1.9-.24 3.8-.55 5.7-.8q8.81-1 17.69-1.81l20.52-1.67a8 8 0 007.34-8v-280h24v320z" fill="#00353b"/></svg>