<svg id="Capa_1" data-name="Capa 1" xmlns="http://www.w3.org/2000/svg" viewBox="0 0 512 511.98"><defs><style>.cls-1{fill:#00353b}</style></defs><path class="cls-1" d="M442.2 137l5.53-27.8-59.36-11.78L256 0l-76 56-66.82-13.3-14.59 73.15L0 188.4V512h512V188.4zm26.2 56.54l-41.6 20.88 8.93-44.92zM256 37.26l63 46.36-99.19-19.73zm156.45 95.54l-19.64 98.71L256 300.2l-148.65-74.63L136.71 78zM79.54 211.61l-35.94-18 46.31-34.08zM30 482V220.31l226 113.46 226-113.46V482z" transform="translate(0 -.01)"/><path class="cls-1" d="M321.72 175.84l5.85-29.43 49.61 9.86-5.85 29.43zM154.43 142.6l5.85-29.43 137.9 27.41-5.85 29.42zm-11.7 58.84l5.85-29.44 167.33 33.26-5.85 29.43z" transform="translate(0 -.01)"/></svg>