<svg id="Layer_1" data-name="Layer 1" xmlns="http://www.w3.org/2000/svg" viewBox="0 0 512 512"><defs><style>.cls-1{fill:#00353b}</style></defs><path class="cls-1" d="M437 0H75A75.08 75.08 0 000 75v362a75.08 75.08 0 0075 75h362a75.08 75.08 0 0075-75V75a75.08 75.08 0 00-75-75zm45 437a45.05 45.05 0 01-45 45H75a45.05 45.05 0 01-45-45V75a45.05 45.05 0 0145-45h362a45.05 45.05 0 0145 45z"/><path class="cls-1" d="M91 422h90V210H91zm30-182h30v152h-30zm210.09-30H331a89.78 89.78 0 00-30 5.1V210h-90v212h90V315a15 15 0 0130 0v107h90V304.69c0-48.55-39.38-94.64-89.91-94.69zM391 392h-30v-77a45 45 0 00-90 0v77h-30V240h30v30l24-18a59.41 59.41 0 0136-12h.06C363 240 391 270.26 391 304.69zM91 180h90V90H91zm30-60h30v30h-30z"/></svg>