<svg data-name="Layer 1" xmlns="http://www.w3.org/2000/svg" viewBox="0 0 512 297.05"><path d="M487.77 193.77V89a15.24 15.24 0 00-10.57-14.51L248.56.73a15.24 15.24 0 00-9.35 0L10.56 74.44a15.24 15.24 0 000 29L125 140.35v57.91c.45 14.83 14.47 28.88 39.57 39.64 22.93 9.83 51.09 15.25 79.27 15.25s56.33-5.42 79.26-15.25c25.53-10.94 39.58-25.28 39.58-40.38v-57.17l94.56-30.48v83.9A39.55 39.55 0 00433 230.18v51.63a15.24 15.24 0 0015.24 15.24h48.47A15.24 15.24 0 00512 281.81v-51.63a39.54 39.54 0 00-24.23-36.41zm-181.39 18.05c-18.39 7-40.58 10.85-62.49 10.85s-44.11-3.85-62.49-10.85c-16.11-6.14-24.05-12.77-25.89-15.56v-46.09l83.7 27a15.14 15.14 0 009.35 0l83.7-27v46.1c-1.86 2.79-9.79 9.42-25.88 15.55zm-62.5-65.18L64.9 89l179-57.7 179 57.7zm237.64 119.93h-18v-36.39a9 9 0 0118 0z" fill="#00353b"/></svg>