<svg id="Layer_1" data-name="Layer 1" xmlns="http://www.w3.org/2000/svg" viewBox="0 0 512 512"><defs><style>.cls-1{fill:#00353b}</style></defs><path class="cls-1" d="M61 361h30v30H61zm0 60h30v30H61zm360-60h30v30h-30zm0 60h30v30h-30z"/><path class="cls-1" d="M0 512h512V271H391v-54.58l18.6 15.94 19.52-22.79L289.51 90h122.7l-45-45 45-45H241v74.15L82.88 209.57l19.52 22.78 18.6-15.93V271H0zm301-121v91h-30v-91zm-89.26-30c6-43 43.42-57.54 44.26-58.23 1.24 1 38.1 14.41 44.26 58.23zm-.74 30h30v91h-30zm271-90v181h-91V301zM271 30h68.79l-15 15 15 15H271zm-15 70.8l105 89.93V482h-30V371.62a105 105 0 00-58-93.91l-17-8.48-17 8.48a105 105 0 00-58 93.91V482h-30V190.73zM30 301h91v181H30z"/><path class="cls-1" d="M256 241a45 45 0 10-45-45 45.05 45.05 0 0045 45zm0-60a15 15 0 11-15 15 15 15 0 0115-15z"/></svg>